<svg version="1" xmlns="http://www.w3.org/2000/svg" width="2666.667" height="2666.667" viewBox="0 0 2000.000000 2000.000000"><path d="M.2 50.2c.3 49.5.3 50.3 2.3 50.4 1.1.1 3.6.4 5.5.7 4.6.8 35.3 5.4 41 6.2 2.5.3 5.6.8 7 1 5.1.8 23.6 3.6 27 4.1 1.9.2 6 .9 9 1.4 3 .5 7.5 1.2 10 1.5 2.5.3 7 1 10 1.5s7.8 1.2 10.5 1.5c2.8.3 6.1.8 7.5 1.1 3.9.7 6.9 1.2 15.5 2.4 4.4.6 9.1 1.3 10.5 1.5 6.8 1.1 16.8 2.6 19 3 1.4.2 4.5.7 7 1 2.5.3 5.6.8 7 1 9.1 1.5 23.9 3.7 27 4 1.4.2 7 1 12.5 1.9 5.5.8 11.8 1.8 14 2.1 2.2.3 6.5 1 9.5 1.5s7.8 1.2 10.5 1.5c2.8.3 5.9.8 7 1 1.1.3 3.8.7 6 1 5.5.8 16.4 2.4 20 3 1.7.3 10.7 1.6 20 3 9.4 1.4 18.1 2.7 19.5 3 1.4.2 4.8.7 7.5 1 2.8.4 5.9.9 7 1 1.1.2 4.3.6 7 1 2.8.4 5.9.9 7 1.1 1.1.2 8.3 1.3 16 2.4 7.7 1.2 15.1 2.3 16.4 2.5 1.4.3 7.5 1.2 13.5 2 6.1.9 12.2 1.8 13.6 2.1 1.4.2 4.5.6 7 1 2.5.3 5.2.7 6 .9.8.2 3.8.7 6.5 1.1 2.8.3 5.7.7 6.5.9 2 .4 8.6 1.3 13.5 2 2.2.3 5.1.7 6.5 1 1.4.2 4.3.7 6.5 1 2.2.3 6.9 1 10.5 1.6 3.6.5 7.6 1.2 9 1.4 1.4.2 5 .7 8 1 3 .4 5.7.8 6 1 .3.2 3 .6 6 1 3 .3 6.2.8 7 1 .8.2 3.8.7 6.5 1 7.6 1 9.4 1.3 16.5 2.4 3.6.6 8.5 1.3 11 1.6 2.5.3 8.6 1.2 13.5 2 5 .8 10.8 1.7 13 2 2.2.3 6.9 1 10.5 1.5 3.6.6 8.1 1.2 10 1.5 1.9.3 6.2 1 9.5 1.5s7.8 1.2 10 1.5c2.2.3 6.9 1 10.5 1.6 8.1 1.2 12.8 1.9 23 3.4 1.4.2 4.5.7 7 1.1 2.5.3 5.4.8 6.5.9 6.9 1 20 3 25.5 3.9 1.4.3 6.1 1 10.5 1.6 4.4.6 9.1 1.3 10.5 1.5 1.4.3 7.2 1.1 13 2 10.3 1.5 13 1.9 20 3 1.9.2 8 1.2 13.5 2s11.1 1.7 12.5 1.9c1.4.3 4.3.7 6.5 1 8.4 1.1 19.2 2.7 24.5 3.6 3 .5 7.5 1.2 10 1.5 2.5.3 5.6.8 7 1.1 1.4.2 3.9.6 5.5.8 5.7.8 12 1.7 17.5 2.6 5.4.9 24.7 3.8 30.3 4.5 6.8.9 11.3 1.6 12.7 2 .8.2 3.5.6 6 .9 2.5.3 5.4.8 6.5 1 1.1.2 4.3.7 7 1 4.3.6 13.2 1.9 28 4.1 2.2.4 5.1.8 6.5 1 4.8.7 12.5 1.9 13 2 .3.1 3 .5 6 .9s7.8 1.1 10.5 1.6c2.8.5 7 1.1 9.5 1.4 2.5.3 5.6.8 7 1.1 1.4.2 4.3.7 6.5 1 2.2.3 5.1.7 6.5.9 1.4.2 4.6.7 7.1 1 2.5.4 5.7.8 7 1.1 1.3.2 5.8.9 9.9 1.5 4.1.6 11.6 1.7 16.5 2.5 5 .8 11 1.7 13.5 2 2.5.3 5.6.8 7 1 1.4.2 4.3.7 6.5 1 2.2.3 5.1.8 6.5 1 1.4.2 5.7.9 9.5 1.5 3.9.5 12 1.7 18 2.6 6.1.9 11.7 1.8 12.5 1.9.8.1 3.3.5 5.5.8 2.2.4 6 .9 8.5 1.2 2.5.3 5.6.8 7 1 3.3.6 7.6 1.3 12.5 2 2.2.3 8.2 1.3 13.3 2.1 5.1.8 15.6 2.3 23.5 3.4 7.8 1.1 16.7 2.5 19.7 3s7.5 1.1 10 1.4c2.5.4 5.5.8 6.7 1 1.1.3 4.3.7 7 1.1 7.5 1 10.4 1.5 16.3 2.5 3 .5 7.5 1.2 10 1.5 2.5.3 11.9 1.7 21 3.1 9.1 1.4 18.1 2.7 20 3 1.9.3 6 .9 9 1.4 3 .5 7.5 1.2 10 1.5 2.5.3 7.2 1 10.5 1.5s7.8 1.2 10 1.5c2.2.3 6.5 1 9.5 1.5s7.5 1.1 10 1.4c2.5.4 5.6.8 7 1.1 1.4.3 4.5.8 7 1.1 2.5.3 5.9.8 7.5 1 1.7.3 8.9 1.4 16 2.5 7.2 1.1 14.6 2.2 16.5 2.5 1.9.3 5.1.7 7 1 1.9.2 6.4.9 10 1.5 3.6.6 7.8 1.2 9.3 1.4 1.6.2 4 .6 5.5.9 1.5.3 5 .8 7.7 1.1 2.8.3 6.1.7 7.5 1 3.6.7 7.2 1.2 19.5 3 6.1.9 12.4 1.8 14 2.1 1.7.3 4.4.7 6 .9 1.7.2 5.7.8 9 1.3 3.3.6 8.3 1.4 11 1.8 8 1 8.6 1.1 17 2.4 4.4.7 8.9 1.4 10 1.6 1.1.3 4 .7 6.5 1 5.1.6 9.4 1.2 13 1.9 1.4.3 4.1.7 6 .9 1.9.3 11.4 1.7 21 3.1 20.4 3.1 20 3.1 26.5 4 7.4 1 10.8 1.5 12.5 2 .8.2 4.2.7 7.5 1 3.2.4 6.2.8 6.5 1 .3.2 2.8.6 5.5.9 2.8.3 6.1.8 7.5 1 1.4.3 7.6 1.2 13.8 2.1 6.2.9 12.3 1.8 13.5 2.1 1.2.2 4.1.6 6.4.9 4.8.6 10.6 1.4 14.3 2.1 1.4.2 4.1.7 6 .9 1.9.3 6.5 1 10.2 1.6 3.7.6 7.8 1.2 9 1.4 5.8.7 25.8 3.7 30.3 4.5 2.8.5 7.3 1.2 10 1.5 2.8.3 7.5 1 10.5 1.5s7.5 1.2 10 1.5c2.5.3 7 1 10 1.5s7.1 1.1 9 1.4c5.3.7 31.1 4.6 34.1 5.1 1.4.3 4.1.7 6 .9 1.9.3 11.3 1.6 20.9 3.1 9.6 1.5 18.4 2.8 19.5 2.9 7.2 1.1 25.4 3.8 27.5 4.1 4.4.7 30.4 4.6 34 5.1 1.9.3 6 .9 9 1.4 3 .6 7.5 1.2 10 1.5 2.5.3 8.6 1.2 13.5 2 5 .8 10.7 1.6 12.8 1.9l3.7.6V0H0l.2 50.2zM221 771.1c-5.8 5-12.7 11-15.4 13.3-2.7 2.2-5.4 4.5-6 5.1-.6.5-4.5 3.9-8.6 7.5-4.1 3.5-8.2 7.1-9.1 8-.9.8-2.7 2.4-4 3.4-7.7 6.2-16.5 14.1-17.3 15.5-1.1 1.7-1.5 160.7-.5 162.3.6.9 6.1-2.8 20.1-13.4.9-.7 14.4-10.8 30.1-22.3l28.6-21v-54.3l.1-54.2h160.1l5.2-4.3c2.9-2.3 5.4-4.4 5.7-4.7.7-.7 16.6-13.5 37-29.9 9.1-7.3 18.3-14.8 20.5-16.6l4-3.5h-240l-10.5 9.1zM530 768.1c-4.1 3.3-9.3 7.5-11.4 9.2-2.2 1.8-8.1 6.6-13.2 10.7-5 4.1-11.9 9.7-15.3 12.5-3.4 2.7-7.2 5.8-8.4 6.9-1.2 1-5.2 4.3-8.9 7.3-3.8 3.1-6.8 5.7-6.8 5.9 0 .2 19 .4 42.3.4h42.2l37.5-28.1c20.6-15.4 38.2-28.7 39-29.5 1.2-1.2-4.9-1.4-44.1-1.4h-45.5l-7.4 6.1zM640.8 773.3c-8 6.1-24.6 18.8-36.7 28-21.7 16.5-22.1 16.9-22.2 20.5V941h-44l-20.7 16.7c-11.4 9.2-27.4 22.1-35.5 28.7-8.1 6.5-15 12.3-15.3 12.7-.3.5 53.4.9 119.4.9h119.9l13-10.8c7.2-5.9 20.7-16.9 29.9-24.5 9.3-7.6 18.6-15.3 20.8-17 2.1-1.8 4.8-4 6-4.9 2-1.7-.8-1.8-56.1-1.8H661V821h43.8l3.4-2.8c1.8-1.5 4.1-3.4 5.2-4.2 1-.8 3.3-2.7 5-4.1 1.7-1.4 11.2-9 21.1-17 9.9-7.9 18.2-14.6 18.5-15 .3-.3 3.9-3.2 8-6.5 4.1-3.2 8.4-6.7 9.4-7.7 1.9-1.6-.9-1.7-59-1.7h-60.9l-14.7 11.3zM877.9 766.2c-3 2.3-5.6 4.5-5.9 4.8-.3.3-7.9 6.4-17 13.5-23.7 18.6-33.1 26.1-42.2 33.5l-8.1 6.6.1 86.4c0 47.6.1 87.1.1 87.7.1 1 8.7 1.3 39.5 1.3h39.5V881c-.1-65.5-.2-119-.3-119-.2 0-2.8 1.9-5.7 4.2zM960.1 823.7l-61.8 61.8.2 21c.2 11.5.3 21.3.4 21.6 0 .3 31.2.5 69.1.5 60.7-.1 69 .1 69.1 1.4v35.7l.1 34.3h78.8v-12c.1-6.6.1-17.6.1-24.5 0-6.9 0-30.6-.1-52.8v-40.2h-54c-29.7 0-54-.1-54-.2 0-.2 6.2-6.7 33-34.3 13.1-13.5 27.1-28 31.1-32.2 4.1-4.2 13-13.5 19.9-20.6 6.9-7.1 14.3-14.7 16.5-17l3.9-4.2h-90.5l-61.8 61.7zM1212.4 770.7c-5.5 4.9-12.4 10.8-15.3 13.3-3 2.5-5.9 5-6.5 5.5-.6.6-4.9 4.3-9.6 8.4-4.7 4-11.4 9.8-14.9 12.9-3.5 3.1-8.4 7.2-10.9 9.2l-4.4 3.6v81.2c0 44.7.2 81.5.5 81.8.3.3 11-7.3 23.8-16.8 12.9-9.5 29-21.5 35.9-26.5 6.9-5.1 14-10.4 15.8-11.9l3.2-2.6-.1-53.7-.1-53.6 80.1-.3 80.1-.2 23.7-19.3c13.1-10.5 29.3-23.6 36.1-29.1 6.7-5.4 12.2-10 12.2-10.2 0-.2-53.9-.4-119.8-.4h-119.8l-10 8.7zM1561.9 766.3c-3 2.3-7.3 5.6-9.5 7.4-2.1 1.8-11.8 9.4-21.4 16.9-9.6 7.6-22.9 18.1-29.5 23.3-6.6 5.2-12.2 9.6-12.4 9.7-.3.3-.4 166.5-.1 175.1 0 1 8.6 1.3 39.4 1.3h39.4V881c0-65.5-.1-119-.1-119-.1 0-2.7 2-5.8 4.3zM1582.5 813.6v51.6l22.6 22.1c27.5 27 87 85.2 103.3 101.1l11.9 11.6h42.9c33.5 0 42.8-.3 42.9-1.3v-235c-.1-1.6-2.7-1.7-39.6-1.7H1727l-.2 69.5-.3 69.4-25.6-25.2c-14.1-13.9-45.8-45-70.3-69.2-24.5-24.2-45.4-44.1-46.3-44.3-1.7-.3-1.8 2.7-1.8 51.4z"/><path d="M292.7 856c-.9.4-1.2 7.6-1.2 29 .1 27.6.1 28.5 2 28.8 1.1.1 23.6.3 50 .5l48 .2.3 13.2.3 13.3H247.8l-6.1 4.8c-3.4 2.6-6.6 5.1-7.2 5.5-3.9 3-21.7 16.7-24.4 18.7-14.5 10.9-35.9 27.4-37.1 28.6-1.2 1.2 13.6 1.4 112.2 1.4h113.6l9.4-7.8c5.3-4.2 14.8-12 21.3-17.2 6.4-5.2 12.2-10 12.9-10.5.6-.6 3.3-2.8 6.1-5 2.7-2.2 5.5-4.5 6.1-5 .6-.6 2.6-2.1 4.4-3.5 1.9-1.4 4.4-3.4 5.6-4.5 1.2-1.1 3.1-2.8 4.3-3.7 1.9-1.6 2-2.7 1.8-44.4l-.2-42.8-88.3-.1c-48.5 0-88.8.2-89.5.5zM1311 862.1c-1.4 1.1-3.4 2.8-4.5 3.7-1.1.9-4.3 3.5-7 5.7-2.8 2.1-5.2 4.2-5.5 4.5-.6.6-7.5 6.2-21 17.1-5.8 4.6-10.7 8.6-11 8.9-.3.3-4 3.4-8.2 6.9-4.3 3.4-7.8 6.4-7.8 6.7 0 .2 31.3.4 69.4.4h69.5l24.3-20.1c13.4-11 25.2-20.8 26.3-21.7 1.1-1 5.3-4.4 9.3-7.7 3.9-3.2 7.2-6 7.2-6.2 0-.2-31.2-.3-69.2-.3-68.3.1-69.3.1-71.8 2.1zM1230.5 947.4c-4.4 3.4-21.4 16.5-37.7 29-16.4 12.5-29.8 22.9-29.8 23.1 0 .3 51 .5 113.4.5h113.4l9.4-7.6c5.1-4.2 10.2-8.3 11.3-9.2 1.1-1 12.6-10.2 25.5-20.6 12.9-10.4 24.2-19.5 25-20.2 1.2-1.2-16.3-1.4-110.5-1.3h-112l-8 6.3zM1974.5 1077.6c-22 6.6-49.2 14.5-83.5 24.5-5.8 1.7-13.2 3.9-16.5 4.9-3.3 1-19.9 5.9-37 10.9-17 5-53.5 15.6-81 23.7-27.5 8-50.7 14.7-51.5 14.9-.8.2-6 1.7-11.5 3.4-5.5 1.6-27.1 8-48 14.1s-40.9 12-44.5 13c-10.2 3.1-114.4 33.5-135.5 39.6-36 10.5-46 13.4-49 14.3-1.6.6-17.8 5.3-36 10.6-18.1 5.3-42.2 12.4-53.5 15.7-77.8 22.8-96.2 28.2-102 29.8-3.6 1-10.3 2.9-15 4.3-15.8 4.7-88.1 25.9-103 30.2-2.5.7-8.5 2.5-13.5 4-4.9 1.5-9.9 3-11 3.2-1.1.3-8.1 2.3-15.5 4.5-7.4 2.3-14.8 4.4-16.5 4.8-1.6.5-20.1 5.8-41 12-20.9 6.1-46.3 13.6-56.5 16.5-10.2 3-30.2 8.8-44.5 13-62.5 18.4-112.3 33-118.5 34.7-1.9.5-7.9 2.3-13.4 4-5.4 1.6-10.6 3.1-11.5 3.4-.9.2-4.5 1.2-8.1 2.3-7.8 2.2-42.2 12.3-53.5 15.6-26.2 7.7-91.9 26.9-102.5 30-6.9 2.1-13.8 4.1-15.5 4.5-1.6.4-18.5 5.4-37.5 11-19 5.5-37.4 11-41 12-5.9 1.7-38.3 11.2-70 20.5-6.9 2-13.2 3.9-14 4.1-2.2.6-26.8 7.7-41 12-6.9 2-14.4 4.2-16.8 4.7-3.4.9-5 2-7.3 5.3-1.6 2.4-2.9 4.5-2.9 4.8 0 .3-2 3.8-4.4 7.8l-4.5 7.4-6.3 1.4c-3.5.8-6.5 1.5-6.8 1.5-.7.1-3 .7-34 7.7-14.6 3.3-27.4 6.2-28.5 6.4-1.2.2-11.1 2.4-22 5-11 2.5-20.9 4.7-22 5-2.2.4-42.6 9.5-67 15-8.8 2-16.6 3.7-17.3 3.7-2 0-2.8 2.5-6.3 19.7-1.8 8.5-4.4 21.3-5.8 28.5l-2.7 13-5.9 1.2c-3.2.6-8.1 1.4-10.9 1.7-2.8.4-7.6 1.1-10.6 1.6s-7.7 1.2-10.4 1.5c-2.7.3-5.2.8-5.5 1-.3.2-2.8.6-5.6.9-2.7.3-15.3 2.1-28 4-12.6 1.9-24.8 3.8-27 4.1-2.2.3-5.3.8-7 1-1.6.3-4.9.8-7.3 1.1-2.4.3-5.1.7-6 .9-.9.2-2 .4-2.4.4-.5.1-.8 67.6-.8 150.1v150h2000v-465c0-255.8-.1-465-.2-464.9-.2.1-11.5 3.5-25.3 7.5z"/></svg>