<?xml version="1.0" encoding="utf-8" standalone="yes"?>
<!DOCTYPE svg PUBLIC "-//W3C//DTD SVG 1.1//EN" "http://www.w3.org/Graphics/SVG/1.1/DTD/svg11.dtd">
<svg xmlns="http://www.w3.org/2000/svg" xmlns:xlink="http://www.w3.org/1999/xlink" xmlns:dc="http://purl.org/dc/elements/1.1/" xmlns:cc="http://web.resource.org/cc/" xmlns:rdf="http://www.w3.org/1999/02/22-rdf-syntax-ns#" xmlns:sodipodi="http://sodipodi.sourceforge.net/DTD/sodipodi-0.dtd" xmlns:inkscape="http://www.inkscape.org/namespaces/inkscape" version="1.1" baseProfile="full" width="1000px" height="1000px" viewBox="0 0 1000 1000" preserveAspectRatio="xMidYMid meet" id="svg_document" style="zoom: 0.5;"><!-- Created with macSVG - https://macsvg.org/ - https://github.com/dsward2/macsvg/ --><title id="svg_document_title">logo.svg</title><defs id="svg_document_defs"><style id="NewYorkEscapeExpanded_font_import">@import url(file:///Users/hibiki/Library/Fonts/newyorkescapeexpand.ttf);</style><style id="Makinas-4-Square_font_import">@import url(file:///Users/hibiki/Library/Fonts/Makinas-4-Square.otf);</style></defs><g id="main_group"><rect x="-2px" height="1000px" y="0px" id="background_rect" width="1000px" fill="#f35400" visibility="visible"></rect><polygon points="0,0 0,50 1000,200 1000,0" stroke="none" id="polygon1" stroke-width="3px" fill="#F1F1F1" transform="" visibility="hidden"></polygon><polygon points="180,775 50,1000 1000,1000 1000,535" stroke="none" id="back" stroke-width="3px" fill="#656565" transform=""></polygon><polygon points="70,810 30,1000 1000,1000 1000,600" stroke="none" id="middle" stroke-width="3px" fill="#545454" transform=""></polygon><polygon points="0,850 0,1000 1000,1000 1000,700" stroke="none" id="front" stroke-width="3px" fill="#3b3b3b" transform=""></polygon><text id="GIKEN" xml:space="preserve" x="50%" font-weight="normal" text-rendering="geometricPrecision" font-family="NewYorkEscapeExpanded" fill="black" font-size="170px" y="50%" transform="" text-anchor="middle" font-stretch="normal">GIKEN</text><text stroke="none" style="outline-style:none;" id="Japanese-name" stroke-width="1px" x="0px" text-rendering="geometricPrecision" font-family="Makinas-4-Square" fill="#cdcdcd" font-size="30px" y="0px" transform="skewX(-30) translate(960 750) rotate(-12 0 -11.398438)" text-anchor="middle" visibility="visible">東京電機大学東京千住キャンパス学術研究部会電子技術研究部</text><rect x="2.5%" height="2%" id="accent" y="2.5%" width="95%" fill="#28a3e1" transform="" visibility="visible"></rect><rect x="145.8px" height="29.25px" y="427.812px" id="rect1" width="89.625px" fill="#000000" transform="" visibility="visible"></rect></g><g id="textToPathGroup"><path stroke="none" id="textToPath-0" stroke-width="2px" d="M783.200012,933.400024 h20 L800.799988,976.799927 h18.6 l2.2,-43.400002 h19.6 l0.8,-14.4 h-58 L783.200012,933.400024  z M879.200012,918.799927 H849.600037 L846.799988,975.599976 h31.6 c21.799999,0 30.200001,-13.8 30.200001,-30.200001 S901.600037,918.799927 879.200012,918.799927 L879.200012,918.799927  z M877.200012,962 h-11.6 l1.4,-30.200001 h10 c7.4,0 12.6,4.8 12.6,13.8 C889.799988,957.400024 881.999939,962 877.200012,962  z M955.399963,953.799927 c-0.4,8 -5.8,10.8 -10.8,10.8 c-7.2,0 -12,-4 -11.6,-10.8 l2,-35.200001 h-17.4 l-2,35.200001 c-0.6,15.8 8.4,24 28,24 c18.4,0 30,-5.8 31.200001,-24 l2,-35.400002 h-19.4 L955.399963,953.799927  z " fill="white" transform="" visibility="visible"></path></g></svg>