<?xml version="1.0" encoding="utf-8" standalone="yes"?>
<!DOCTYPE svg PUBLIC "-//W3C//DTD SVG 1.1//EN" "http://www.w3.org/Graphics/SVG/1.1/DTD/svg11.dtd">
<svg xmlns="http://www.w3.org/2000/svg" xmlns:xlink="http://www.w3.org/1999/xlink" xmlns:dc="http://purl.org/dc/elements/1.1/" xmlns:cc="http://web.resource.org/cc/" xmlns:rdf="http://www.w3.org/1999/02/22-rdf-syntax-ns#" xmlns:sodipodi="http://sodipodi.sourceforge.net/DTD/sodipodi-0.dtd" xmlns:inkscape="http://www.inkscape.org/namespaces/inkscape" version="1.1" baseProfile="full" width="1000px" height="1000px" viewBox="0 0 1000 1000" preserveAspectRatio="xMidYMid meet" id="svg_document" style="zoom: 0.5;"><!-- Created with macSVG - https://macsvg.org/ - https://github.com/dsward2/macsvg/ --><title id="svg_document_title">Untitled.svg</title><defs id="svg_document_defs"><style id="NewYorkEscapeExpanded_font_import">@import url(file:///Users/hibiki/Library/Fonts/newyorkescapeexpand.ttf);</style><style id="Makinas-4-Square_font_import">@import url(file:///Users/hibiki/Library/Fonts/Makinas-4-Square.otf);</style></defs><g id="main_group"><rect x="0px" height="1000px" id="background_rect" y="0px" width="1000px" fill="#f35400"></rect><polygon points="180,775 50,1000 1000,1000 1000,535" stroke="none" id="polygon3" stroke-width="3px" fill="#656565" transform=""></polygon><polygon points="70,810 30,1000 1000,1000 1000,600" stroke="none" id="polygon2" stroke-width="3px" fill="#545454" transform=""></polygon><polygon points="0,850 0,1000 1000,1000 1000,700" stroke="none" id="polygon1" stroke-width="3px" fill="#3b3b3b" transform=""></polygon><text id="sample_text_element" x="50%" y="56.5%" font-family="NewYorkEscapeExpanded" font-size="170px" fill="black" xml:space="preserve" text-anchor="middle" text-rendering="geometricPrecision" transform="" style="outline-style:none;">GIKEN</text><text stroke="none" style="outline-style:none;" id="text1" stroke-width="1px" x="0px" text-rendering="geometricPrecision" font-family="Makinas-4-Square" fill="#cdcdcd" font-size="30px" y="0px" transform="skewX(-30) translate(960 750) rotate(-12 0 -11.398438)" text-anchor="middle">東京電機大学東京千住キャンパス学術研究部会電子技術研究部</text></g><path stroke="#000000" id="path1" stroke-width="3px" d="M-0.8,13.4 h10 L8,35.099998 h9.3 l1.1,-21.7 h9.8 l0.4,-7.2 h-29 L-0.8,13.4  z M47.200001,6.1 H32.400002 L31,34.5 h15.8 c10.9,0 15.1,-6.9 15.1,-15.1 S58.400002,6.1 47.200001,6.1 L47.200001,6.1  z M46.200001,27.700001 h-5.8 l0.7,-15.1 h5 c3.7,0 6.3,2.4 6.3,6.9 C52.5,25.4 48.599998,27.700001 46.200001,27.700001  z M85.300003,23.6 c-0.2,4 -2.9,5.4 -5.4,5.4 c-3.6,0 -6,-2 -5.8,-5.4 l1,-17.6 h-8.7 l-1,17.6 c-0.3,7.9 4.2,12 14,12 c9.2,0 15,-2.9 15.6,-12 l1,-17.7 h-9.7 L85.300003,23.6  z " fill="none" transform=""></path></svg>