<?xml version="1.0" encoding="utf-8" standalone="yes"?><!-- Generator: Adobe Illustrator 19.2.1, SVG Export Plug-In . SVG Version: 6.00 Build 0)  --><svg xmlns="http://www.w3.org/2000/svg" xmlns:xlink="http://www.w3.org/1999/xlink" version="1.1" id="レイヤー_1" x="0px" y="0px" width="310px" height="40px" viewBox="0 0 310 40" style="enable-background:new 0 0 310 40;zoom: 1;" xml:space="preserve"><style type="text/css">
        .st0{fill:#2D56A0;}
</style><title>logo_01</title><path class="st0" d="M-0.8,13.4 h10 L8,35.099998 h9.3 l1.1,-21.7 h9.8 l0.4,-7.2 h-29 L-0.8,13.4  z M47.200001,6.1 H32.400002 L31,34.5 h15.8 c10.9,0 15.1,-6.9 15.1,-15.1 S58.400002,6.1 47.200001,6.1 L47.200001,6.1  z M46.200001,27.700001 h-5.8 l0.7,-15.1 h5 c3.7,0 6.3,2.4 6.3,6.9 C52.5,25.4 48.599998,27.700001 46.200001,27.700001  z M85.300003,23.6 c-0.2,4 -2.9,5.4 -5.4,5.4 c-3.6,0 -6,-2 -5.8,-5.4 l1,-17.6 h-8.7 l-1,17.6 c-0.3,7.9 4.2,12 14,12 c9.2,0 15,-2.9 15.6,-12 l1,-17.7 h-9.7 L85.300003,23.6  z"></path></svg>